<?xml version="1.0" standalone="no"?>
<!DOCTYPE svg PUBLIC "-//W3C//DTD SVG 20010904//EN"
 "http://www.w3.org/TR/2001/REC-SVG-20010904/DTD/svg10.dtd">
<svg version="1.0" xmlns="http://www.w3.org/2000/svg"
 width="375.000000pt" height="375.000000pt" viewBox="0 0 375.000000 375.000000"
 preserveAspectRatio="xMidYMid meet">
<metadata>
Created by potrace 1.11, written by Peter Selinger 2001-2013
</metadata>
<g transform="translate(0.000000,375.000000) scale(0.100000,-0.100000)"
fill="#000000" stroke="none">
<path d="M860 1875 l0 -1005 135 0 135 0 0 865 0 865 155 0 155 0 0 -280 0
-280 419 0 c326 0 420 3 423 13 2 6 3 132 2 280 l-1 267 154 0 153 0 0 -865 0
-865 135 0 135 0 0 1005 0 1005 -430 0 -430 0 0 -285 0 -285 -140 0 -140 0 0
285 0 285 -430 0 -430 0 0 -1005z"/>
<path d="M1440 1300 l0 -430 420 0 420 0 0 180 0 180 -135 0 -135 0 0 -40 0
-40 -145 0 -145 0 0 150 0 150 145 0 145 0 0 -40 0 -40 135 0 135 0 0 180 0
180 -420 0 -420 0 0 -430z"/>
</g>
</svg>
